<svg class="icon" height="32" p-id="12693" style="margin-top: 10px" t="1713617722938"
     version="1.1" viewBox="0 0 1024 1024" width="32" xmlns="http://www.w3.org/2000/svg">
    <path
            d="M923.136 427.52l-223.232-55.808c-4.096-1.024-7.68-3.584-9.728-7.168l-121.856-194.56c-5.12-8.192-12.288-15.36-20.992-20.48-30.72-19.456-71.168-9.728-90.624 20.48l-122.368 194.56c-2.048 3.584-5.632 6.144-9.728 7.168L100.864 427.52c-9.728 2.56-18.432 7.168-26.112 13.312-27.648 23.04-31.744 64.512-8.192 92.16l38.4 46.08 48.64 4.096c230.912 20.48 435.2 164.352 531.968 374.784l21.504 47.104 24.064 9.728c9.216 3.584 18.944 5.12 29.184 4.608 36.352-2.56 63.488-33.792 60.928-69.632l-15.872-228.864c-0.512-4.096 1.024-8.192 3.584-11.776l147.456-176.128c6.656-7.68 10.752-16.384 13.312-26.112 9.728-34.816-11.264-70.656-46.592-79.36z"
            fill="#FFFD10" p-id="12694"></path>
    <path
            d="M149.504 632.32l64.512 77.312c2.56 3.072 4.096 7.68 3.584 11.776l-15.872 228.864c-0.512 9.728 1.024 19.968 4.608 29.184 10.24 25.6 34.816 40.96 60.928 40.96 8.192 0 16.384-1.536 24.576-4.608l213.504-86.016c2.048-1.024 4.096-1.024 6.144-1.024 2.048 0 4.096 0.512 6.144 1.024l123.392 49.664c-87.04-190.976-272.384-327.68-491.52-347.136z"
            fill="#FFA24B" p-id="12695"></path>
    <path
            d="M651.776 66.56c-16.896 0-31.232 13.824-31.232 30.72s13.824 30.72 31.232 30.72c17.408 0 31.232-13.824 31.232-30.72-0.512-16.896-14.336-30.72-31.232-30.72z m0 46.08c-8.704 0-15.872-7.168-15.872-15.36s7.168-15.36 15.872-15.36 15.872 7.168 15.872 15.36c-0.512 8.192-7.68 15.36-15.872 15.36z"
            fill="#46C5FF" p-id="12696"></path>
    <path
            d="M302.08 257.536h-13.824v-13.312c0-3.584-3.072-6.656-6.656-6.656s-6.656 3.072-6.656 6.656v13.312H261.12c-3.584 0-6.656 3.072-6.656 6.656 0 3.584 3.072 6.656 6.656 6.656h13.824v13.312c0 3.584 3.072 6.656 6.656 6.656s6.656-3.072 6.656-6.656v-13.312H302.08c3.584 0 6.656-3.072 6.656-6.656s-2.56-6.656-6.656-6.656zM948.736 227.328h-13.824v-13.312c0-3.584-3.072-6.656-6.656-6.656s-6.656 3.072-6.656 6.656v13.312h-13.824c-3.584 0-6.656 3.072-6.656 6.656s3.072 6.656 6.656 6.656h13.824v13.312c0 3.584 3.072 6.656 6.656 6.656s6.656-3.072 6.656-6.656V240.64h13.824c3.584 0 6.656-3.072 6.656-6.656s-3.072-6.656-6.656-6.656z"
            fill="#F7E42F" p-id="12697"></path>
    <path
            d="M54.784 372.736H38.912v-15.36c0-4.096-3.584-7.68-7.68-7.68s-7.68 3.584-7.68 7.68v15.36H7.68c-4.096 0-7.68 3.584-7.68 7.68s3.584 7.68 7.68 7.68h15.872v15.36c0 4.096 3.584 7.68 7.68 7.68s7.68-3.584 7.68-7.68v-15.36h15.872c4.096 0 7.68-3.584 7.68-7.68s-3.584-7.68-7.68-7.68z"
            fill="#F8B62D" p-id="12698"></path>
    <path d="M346.624 128a11.776 11.264 0 1 0 23.552 0 11.776 11.264 0 1 0-23.552 0Z" fill="#F8B62D"
          p-id="12699"></path>
    <path
            d="M807.424 173.568c-8.704 0-15.36 6.656-15.36 14.848 0 8.192 6.656 14.848 15.36 14.848s15.36-6.656 15.36-14.848c0-8.192-6.656-14.848-15.36-14.848z"
            fill="#F8B62D" p-id="12700"></path>
    <path
            d="M667.136 207.872c-8.704 0-15.36 6.656-15.36 14.848 0 8.192 6.656 14.848 15.36 14.848s15.36-6.656 15.36-14.848c-1.024-8.192-7.168-14.848-15.36-14.848z"
            fill="#F7E42F" p-id="12701"></path>
    <path
            d="M180.736 161.792c-16.896 0-31.232 13.824-31.232 30.72s13.824 30.72 31.232 30.72c17.408 0 31.232-13.824 31.232-30.72s-14.336-30.72-31.232-30.72z m0 46.08c-8.704 0-15.872-7.168-15.872-15.36 0-8.704 7.168-15.36 15.872-15.36 8.704 0 15.872 7.168 15.872 15.36s-7.168 15.36-15.872 15.36z"
            fill="#F8B62D" p-id="12702"></path>
    <path
            d="M487.936 46.592l-13.824 13.312c-1.024 0.512-1.536 1.536-1.536 2.56s0.512 2.048 1.024 3.072c1.024 1.024 2.048 1.024 3.072 1.024s2.048-0.512 3.072-1.024l13.824-13.312c1.536-1.536 1.536-4.096 0-6.144-1.536-1.024-4.096-1.024-5.632 0.512zM480.256 11.264c-1.536-1.536-4.096-1.536-6.144 0-1.024 1.024-1.536 2.048-1.536 3.072s0.512 2.048 1.024 3.072L487.424 30.72c1.024 1.024 2.048 1.024 3.072 1.024s2.048-0.512 3.072-1.024c1.536-1.536 1.536-4.096 0-6.144l-13.312-13.312zM501.76 49.664c-2.56 0-4.096 2.048-4.096 4.096v18.944c0 2.56 2.048 4.096 4.096 4.096s4.096-2.048 4.096-4.096v-18.944c0.512-2.048-1.536-4.096-4.096-4.096zM490.496 38.4c0-2.56-2.048-4.096-4.096-4.096h-19.456c-2.56 0-4.096 2.048-4.096 4.096 0 2.56 2.048 4.096 4.096 4.096H486.4c2.048 0 4.096-1.536 4.096-4.096zM501.76 0c-2.56 0-4.096 2.048-4.096 4.096v18.944c0 2.56 2.048 4.096 4.096 4.096s4.096-2.048 4.096-4.096V4.096c0.512-2.56-1.536-4.096-4.096-4.096zM537.088 34.304h-19.456c-2.56 0-4.096 2.048-4.096 4.096 0 2.56 2.048 4.096 4.096 4.096h19.456c2.56 0 4.096-2.048 4.096-4.096s-1.536-4.096-4.096-4.096zM516.096 46.592c-1.024-1.024-2.048-1.024-3.072-1.024-1.024 0-2.048 0.512-3.072 1.024-1.536 1.536-1.536 4.096 0 6.144l13.824 13.312c1.024 1.024 2.048 1.024 3.072 1.024 1.024 0 2.048-0.512 3.072-1.024 1.024-1.024 1.024-1.536 1.024-3.072 0-1.024-0.512-2.048-1.024-3.072l-13.824-13.312zM513.024 31.744c1.024 0 2.048-0.512 3.072-1.024l13.824-13.312c1.024-1.024 1.024-1.536 1.024-3.072 0-1.024-0.512-2.048-1.024-3.072-1.536-1.536-4.096-1.536-6.144 0l-13.824 13.312c-1.536 2.048-1.536 4.608 0 6.144 1.024 0.512 2.048 1.024 3.072 1.024z"
            fill="#FAEE00" p-id="12703"></path>
    <path
            d="M998.912 404.48c-1.024-1.024-2.048-1.024-3.072-1.024s-2.048 0.512-3.072 1.024c-1.536 1.536-1.536 4.096 0 6.144l13.824 13.312c1.024 1.024 2.048 1.024 3.072 1.024s2.048-0.512 3.072-1.024c1.024-1.024 1.024-1.536 1.024-3.072 0-1.024-0.512-2.048-1.024-3.072l-13.824-13.312zM970.24 404.48l-13.824 13.312c-1.024 1.024-1.024 1.536-1.024 3.072 0 1.024 0.512 2.048 1.024 3.072 1.024 1.024 2.048 1.024 3.072 1.024s2.048-0.512 3.072-1.024l13.824-13.312c1.536-1.536 1.536-4.096 0-6.144-1.536-1.536-4.608-1.536-6.144 0zM1019.904 392.704h-19.456c-2.56 0-4.096 2.048-4.096 4.096s2.048 4.096 4.096 4.096h19.456c2.56 0 4.096-2.048 4.096-4.096 0-2.56-2.048-4.096-4.096-4.096zM963.072 369.152c-1.536-1.536-4.096-1.536-6.144 0-1.024 1.024-1.024 1.536-1.024 3.072 0 1.024 0.512 2.048 1.024 3.072l13.312 13.312c1.024 1.024 2.048 1.024 3.072 1.024 1.024 0 2.048-0.512 3.072-1.024 1.536-1.536 1.536-4.096 0-6.144l-13.312-13.312zM995.84 389.632c1.024 0 2.048-0.512 3.072-1.024l13.824-13.312c1.024-1.024 1.024-1.536 1.024-3.072s-0.512-2.048-1.024-3.072c-1.536-1.536-4.096-1.536-6.144 0l-13.824 13.312c-1.536 1.536-1.536 4.096 0 6.144 1.024 1.024 2.048 1.024 3.072 1.024zM984.576 408.064c-2.56 0-4.096 2.048-4.096 4.096v18.944c0 2.56 2.048 4.096 4.096 4.096 2.56 0 4.096-2.048 4.096-4.096v-18.944c0-2.56-1.536-4.096-4.096-4.096zM972.8 396.8c0-2.56-2.048-4.096-4.096-4.096h-19.456c-2.56 0-4.096 2.048-4.096 4.096s2.048 4.096 4.096 4.096h19.456c2.56 0 4.096-2.048 4.096-4.096zM984.576 358.4c-2.56 0-4.096 2.048-4.096 4.096v18.944c0 2.56 2.048 4.096 4.096 4.096 2.56 0 4.096-2.048 4.096-4.096v-18.944c0-2.56-1.536-4.096-4.096-4.096z"
            fill="#F8B62D" p-id="12704"></path>
</svg>
